<svg id="Capa_1" data-name="Capa 1" xmlns="http://www.w3.org/2000/svg" viewBox="0 0 1435.42 239.88"><defs><style>.cls-1{fill:#fff;}.cls-2,.cls-4{fill:#f2e500;}.cls-3{fill:none;}.cls-4{font-size:231.44px;font-family:Orbitron-Medium, Orbitron;font-weight:500;}.cls-5{letter-spacing:0em;}</style></defs><path class="cls-1" d="M6517.66,7267.35q-12.43,0-18.11-8.76t-1.28-21.2l3.42-9.67h24.88l-2.2,6.22c-1.19,3.38-1.41,5.64-.67,6.8s2.81,1.72,6.19,1.72H6629c3.37,0,5.81-.57,7.29-1.72s2.82-3.42,4-6.8l10.07-28.57c1.25-3.54,1.51-5.8.79-6.8s-2.78-1.5-6.16-1.5H6542.44q-12.44,0-18.07-8.87t-1.23-21.31l12.51-35.48q4.38-12.45,16.23-21.2t24.28-8.76h106q12.45,0,18.11,8.76t1.28,21.2l-3.41,9.67H6673l2.19-6.22c1.19-3.38,1.45-5.64.78-6.8s-2.69-1.72-6.07-1.72h-99.08c-3.38,0-5.84.57-7.4,1.72s-2.94,3.42-4.13,6.8l-10.07,28.57c-1.25,3.54-1.47,5.8-.67,6.8s2.89,1.5,6.27,1.5h102.53q12.44,0,18.07,8.87t1.24,21.31l-12.51,35.48q-4.4,12.45-16.24,21.2t-24.28,8.76Z" transform="translate(-6496.36 -7081.61)"/><path class="cls-1" d="M6703.26,7267.35q-11.06,0-16.09-7.79t-1.14-18.84l33.22-94.21q3.9-11.06,14.43-18.84t21.58-7.78h94.22q10.85,0,16,7.78t1.24,18.84l-33.22,94.21q-3.9,11.07-14.53,18.84t-21.48,7.79Zm10.87-22.12H6802c3.14,0,5.36-.51,6.68-1.54s2.51-3,3.57-6l31.06-88.07q1.57-4.5.69-6c-.59-1-2.46-1.54-5.6-1.54h-87.86c-3,0-5.2.52-6.58,1.54s-2.61,3-3.67,6l-31.06,88.07q-1.59,4.52-.59,6T6714.13,7245.23Z" transform="translate(-6496.36 -7081.61)"/><path class="cls-1" d="M6846.83,7267.35l52.07-147.67H6921l-44.27,125.55h125.34l-7.8,22.12Z" transform="translate(-6496.36 -7081.61)"/><path class="cls-1" d="M7197.53,7267.35l52-147.46h135.17l-7.8,22.11H7264.06l-14.23,40.35h90.73l-8,22.53h-90.72l-14.23,40.35h112.85l-7.8,22.12Z" transform="translate(-6496.36 -7081.61)"/><path class="cls-1" d="M7354.41,7267.35l52-147.46h120.63q11.05,0,16.2,7.78t1.24,18.84l-33.23,94.21q-3.9,11.07-14.53,18.84t-21.69,7.79Zm37.5-22.12h87.86q4.71,0,6.69-1.54t3.56-6l31.06-88.07q1.59-4.5.7-6c-.6-1-2.47-1.54-5.61-1.54h-87.86c-3,0-5.2.52-6.58,1.54s-2.61,3-3.67,6L7387,7237.65q-1.58,4.52-.59,6C7387.07,7244.72,7388.91,7245.23,7391.91,7245.23Z" transform="translate(-6496.36 -7081.61)"/><path class="cls-1" d="M7525.79,7267.35l8.77-24.89h24.89l-8.78,24.89Z" transform="translate(-6496.36 -7081.61)"/><polygon class="cls-1" points="710.04 38.13 595.88 161.38 591.67 142.61 570.97 164.86 575.88 186.53 597.93 186.53 736.01 38.13 710.04 38.13"/><polygon class="cls-1" points="568.23 38.13 542.26 38.13 565.35 140.04 586.07 117.67 568.23 38.13"/><polygon class="cls-2" points="548 158.77 516.9 20.11 487.69 20.11 525.5 187.06 550.31 187.06 570.97 164.86 565.35 140.04 548 158.77"/><polygon class="cls-2" points="705.65 20.11 676.43 20.11 586.07 117.67 591.67 142.61 705.65 20.11"/><polygon class="cls-3" points="586.07 117.67 565.35 140.04 570.97 164.86 591.67 142.61 586.07 117.67"/><text class="cls-4" transform="matrix(0.94, 0, -0.34, 0.94, 1068.53, 187.04)"><tspan class="cls-5">e</tspan><tspan x="159.23" y="0">s</tspan></text></svg>